{
	"asset":{
		"generator":"Khronos glTF Blender I/O v4.2.70",
		"version":"2.0"
	},
	"scene":0,
	"scenes":[
		{
			"name":"Scene",
			"nodes":[
				2
			]
		}
	],
	"nodes":[
		{
			"mesh":0,
			"name":"soda-can-a"
		},
		{
			"mesh":1,
			"name":"soda-can-b",
			"translation":[
				0,
				-0.021260660141706467,
				-11.642280578613281
			]
		},
		{
			"children":[
				0,
				1
			],
			"name":"soda-can-001",
			"rotation":[
				0.7071068286895752,
				0,
				0,
				0.7071068286895752
			],
			"scale":[
				0.009999999776482582,
				0.009999999776482582,
				0.009999999776482582
			]
		}
	],
	"materials":[
		{
			"doubleSided":true,
			"name":"Metal",
			"pbrMetallicRoughness":{
				"roughnessFactor":0.25,
				"metallicFactor":0.90
			}
		},
		{
			"doubleSided":true,
			"name":"Can Body",
			"pbrMetallicRoughness":{
				"roughnessFactor":0.45,
				"metallicFactor":0.75
			}
		},
		{
			"doubleSided":true,
			"name":"Can Label",
			"pbrMetallicRoughness":{
				"baseColorFactor":[
					0.35,
					0.35,
					0.35,
					1
				],
				"roughnessFactor":1,
				"metallicFactor":0.35

			}
		}
	],
	"meshes":[
		{
			"name":"bodyMesh",
			"primitives":[
				{
					"attributes":{
						"POSITION":0,
						"NORMAL":1,
						"TEXCOORD_0":2
					},
					"indices":3,
					"material":0
				},
				{
					"attributes":{
						"POSITION":4,
						"NORMAL":5,
						"TEXCOORD_0":6
					},
					"indices":7,
					"material":1
				},
				{
					"attributes":{
						"POSITION":8,
						"NORMAL":9,
						"TEXCOORD_0":10
					},
					"indices":11,
					"material":2
				}
			]
		},
		{
			"name":"capMesh",
			"primitives":[
				{
					"attributes":{
						"POSITION":12,
						"NORMAL":13,
						"TEXCOORD_0":14
					},
					"indices":15,
					"material":0
				}
			]
		}
	],
	"accessors":[
		{
			"bufferView":0,
			"componentType":5126,
			"count":11656,
			"max":[
				2.7070939540863037,
				2.707087278366089,
				-0.0004999160883016884
			],
			"min":[
				-2.7070815563201904,
				-2.707087516784668,
				-12.065336227416992
			],
			"type":"VEC3"
		},
		{
			"bufferView":1,
			"componentType":5126,
			"count":11656,
			"type":"VEC3"
		},
		{
			"bufferView":2,
			"componentType":5126,
			"count":11656,
			"type":"VEC2"
		},
		{
			"bufferView":3,
			"componentType":5123,
			"count":68904,
			"type":"SCALAR"
		},
		{
			"bufferView":4,
			"componentType":5126,
			"count":1656,
			"max":[
				3.1629464626312256,
				3.162940263748169,
				-0.4534912407398224
			],
			"min":[
				-3.162933826446533,
				-3.1629409790039062,
				-11.874273300170898
			],
			"type":"VEC3"
		},
		{
			"bufferView":5,
			"componentType":5126,
			"count":1656,
			"type":"VEC3"
		},
		{
			"bufferView":6,
			"componentType":5126,
			"count":1656,
			"type":"VEC2"
		},
		{
			"bufferView":7,
			"componentType":5123,
			"count":9072,
			"type":"SCALAR"
		},
		{
			"bufferView":8,
			"componentType":5126,
			"count":2555,
			"max":[
				3.162946939468384,
				3.162940263748169,
				-0.9256604909896851
			],
			"min":[
				-3.162933826446533,
				-3.1629414558410645,
				-10.422402381896973
			],
			"type":"VEC3"
		},
		{
			"bufferView":9,
			"componentType":5126,
			"count":2555,
			"type":"VEC3"
		},
		{
			"bufferView":10,
			"componentType":5126,
			"count":2555,
			"type":"VEC2"
		},
		{
			"bufferView":11,
			"componentType":5123,
			"count":14688,
			"type":"SCALAR"
		},
		{
			"bufferView":12,
			"componentType":5126,
			"count":5702,
			"max":[
				0.7886778712272644,
				1.750016212463379,
				0.03762450069189072
			],
			"min":[
				-0.7886649966239929,
				-0.7851152420043945,
				-0.05382504314184189
			],
			"type":"VEC3"
		},
		{
			"bufferView":13,
			"componentType":5126,
			"count":5702,
			"type":"VEC3"
		},
		{
			"bufferView":14,
			"componentType":5126,
			"count":5702,
			"type":"VEC2"
		},
		{
			"bufferView":15,
			"componentType":5123,
			"count":32544,
			"type":"SCALAR"
		}
	],
	"bufferViews":[
		{
			"buffer":0,
			"byteLength":139872,
			"byteOffset":0,
			"target":34962
		},
		{
			"buffer":0,
			"byteLength":139872,
			"byteOffset":139872,
			"target":34962
		},
		{
			"buffer":0,
			"byteLength":93248,
			"byteOffset":279744,
			"target":34962
		},
		{
			"buffer":0,
			"byteLength":137808,
			"byteOffset":372992,
			"target":34963
		},
		{
			"buffer":0,
			"byteLength":19872,
			"byteOffset":510800,
			"target":34962
		},
		{
			"buffer":0,
			"byteLength":19872,
			"byteOffset":530672,
			"target":34962
		},
		{
			"buffer":0,
			"byteLength":13248,
			"byteOffset":550544,
			"target":34962
		},
		{
			"buffer":0,
			"byteLength":18144,
			"byteOffset":563792,
			"target":34963
		},
		{
			"buffer":0,
			"byteLength":30660,
			"byteOffset":581936,
			"target":34962
		},
		{
			"buffer":0,
			"byteLength":30660,
			"byteOffset":612596,
			"target":34962
		},
		{
			"buffer":0,
			"byteLength":20440,
			"byteOffset":643256,
			"target":34962
		},
		{
			"buffer":0,
			"byteLength":29376,
			"byteOffset":663696,
			"target":34963
		},
		{
			"buffer":0,
			"byteLength":68424,
			"byteOffset":693072,
			"target":34962
		},
		{
			"buffer":0,
			"byteLength":68424,
			"byteOffset":761496,
			"target":34962
		},
		{
			"buffer":0,
			"byteLength":45616,
			"byteOffset":829920,
			"target":34962
		},
		{
			"buffer":0,
			"byteLength":65088,
			"byteOffset":875536,
			"target":34963
		}
	],
	"buffers":[
		{
			"byteLength":940624,
			"uri":"Beer-Can.bin"
		}
	]
}
